<?xml version="1.0" encoding="UTF-8"?>
<svg xmlns="http://www.w3.org/2000/svg" xmlns:xlink="http://www.w3.org/1999/xlink" width="64px" height="64px" viewBox="0 0 64 64" version="1.1">
<g id="surface1">
<path style="fill:none;stroke-width:2;stroke-linecap:round;stroke-linejoin:round;stroke:rgb(100%,100%,100%);stroke-opacity:1;stroke-miterlimit:10;" d="M 3 11 L 29 11 " transform="matrix(2,0,0,2,0,0)"/>
<path style=" stroke:none;fill-rule:nonzero;fill:rgb(100%,100%,100%);fill-opacity:1;" d="M 14 18 C 13.398438 18 13 17.800781 12.601562 17.398438 C 12.199219 17 12 16.601562 12 16 C 12 15.398438 12.199219 15 12.601562 14.601562 C 12.601562 14.601562 12.800781 14.398438 12.800781 14.398438 C 13 14.398438 13 14.199219 13.199219 14.199219 C 13.398438 14 13.398438 14 13.601562 14 C 13.800781 14 14.199219 14 14.398438 14 C 14.601562 14 14.601562 14 14.800781 14.199219 C 15 14.199219 15 14.398438 15.199219 14.398438 C 15.199219 14.398438 15.398438 14.601562 15.398438 14.601562 C 15.601562 14.800781 15.800781 15 15.800781 15.199219 C 16 15.398438 16 15.800781 16 16 C 16 16.199219 16 16.601562 15.800781 16.800781 C 15.800781 17 15.601562 17.199219 15.398438 17.398438 C 15 17.800781 14.601562 18 14 18 Z M 14 18 "/>
<path style=" stroke:none;fill-rule:nonzero;fill:rgb(100%,100%,100%);fill-opacity:1;" d="M 20 18 C 19.398438 18 19 17.800781 18.601562 17.398438 C 18.199219 17 18 16.601562 18 16 C 18 15.800781 18 15.398438 18.199219 15.199219 C 18.398438 15 18.398438 14.800781 18.601562 14.601562 C 18.800781 14.398438 19 14.199219 19.199219 14.199219 C 20 13.800781 20.800781 14 21.398438 14.601562 C 21.601562 14.800781 21.800781 15 21.800781 15.199219 C 22 15.398438 22 15.800781 22 16 C 22 16.601562 21.800781 17 21.398438 17.398438 C 21 17.800781 20.601562 18 20 18 Z M 20 18 "/>
<path style=" stroke:none;fill-rule:nonzero;fill:rgb(100%,100%,100%);fill-opacity:1;" d="M 26 18 C 25.800781 18 25.398438 18 25.199219 17.800781 C 25 17.601562 24.800781 17.601562 24.601562 17.398438 C 24.398438 17.199219 24.199219 17 24.199219 16.800781 C 24 16.601562 24 16.199219 24 16 C 24 15.800781 24 15.398438 24.199219 15.199219 C 24.398438 15 24.398438 14.800781 24.601562 14.601562 C 25.398438 13.800781 26.601562 13.800781 27.398438 14.601562 C 27.601562 14.800781 27.800781 15 27.800781 15.199219 C 28 15.398438 28 15.800781 28 16 C 28 16.199219 28 16.601562 27.800781 16.800781 C 27.601562 17 27.601562 17.199219 27.398438 17.398438 C 27 17.800781 26.601562 18 26 18 Z M 26 18 "/>
<path style="fill:none;stroke-width:2;stroke-linecap:round;stroke-linejoin:round;stroke:rgb(100%,100%,100%);stroke-opacity:1;stroke-miterlimit:10;" d="M 27 5 L 5 5 C 3.900391 5 3 5.900391 3 7 L 3 25 C 3 26.099609 3.900391 27 5 27 L 27 27 C 28.099609 27 29 26.099609 29 25 L 29 7 C 29 5.900391 28.099609 5 27 5 Z M 27 5 " transform="matrix(2,0,0,2,0,0)"/>
<path style="fill:none;stroke-width:2;stroke-linecap:round;stroke-linejoin:round;stroke:rgb(100%,100%,100%);stroke-opacity:1;stroke-miterlimit:10;" d="M 11 16 L 8 19 L 11 22 " transform="matrix(2,0,0,2,0,0)"/>
<path style="fill:none;stroke-width:2;stroke-linecap:round;stroke-linejoin:round;stroke:rgb(100%,100%,100%);stroke-opacity:1;stroke-miterlimit:10;" d="M 21 16 L 24 19 L 21 22 " transform="matrix(2,0,0,2,0,0)"/>
<path style="fill:none;stroke-width:2;stroke-linecap:round;stroke-linejoin:round;stroke:rgb(100%,100%,100%);stroke-opacity:1;stroke-miterlimit:10;" d="M 18 15 L 14 23 " transform="matrix(2,0,0,2,0,0)"/>
</g>
</svg>
