<?xml version="1.0" encoding="UTF-8"?>
<svg xmlns="http://www.w3.org/2000/svg" xmlns:xlink="http://www.w3.org/1999/xlink" width="64px" height="64px" viewBox="0 0 64 64" version="1.1">
<g id="surface1">
<path style=" stroke:none;fill-rule:nonzero;fill:rgb(100%,100%,100%);fill-opacity:1;" d="M 62.75 25.8125 L 52.5 25.8125 L 52.5 23.167969 C 52.5 22.476562 51.941406 21.917969 51.25 21.917969 L 24.25 21.917969 C 23.558594 21.917969 23 22.476562 23 23.167969 C 23 23.855469 23.558594 24.417969 24.25 24.417969 L 50 24.417969 L 50 34 C 50 42.417969 45.503906 50.242188 38.246094 54.5 L 14.253906 54.5 C 6.996094 50.242188 2.5 42.417969 2.5 34 L 2.5 24.417969 L 10.875 24.417969 C 11.566406 24.417969 12.125 23.855469 12.125 23.167969 C 12.125 22.476562 11.566406 21.917969 10.875 21.917969 L 1.25 21.917969 C 0.558594 21.917969 0 22.476562 0 23.167969 L 0 34 C 0 38.726562 1.269531 43.359375 3.671875 47.398438 C 5.292969 50.121094 7.394531 52.527344 9.859375 54.5 L 1.25 54.5 C 0.558594 54.5 0 55.058594 0 55.75 C 0 60.300781 3.699219 64 8.25 64 L 47.25 64 C 51.800781 64 55.5 60.300781 55.5 55.75 C 55.5 55.058594 54.941406 54.5 54.25 54.5 L 42.640625 54.5 C 44.910156 52.683594 46.867188 50.503906 48.429688 48.042969 L 51.957031 48.042969 C 58.597656 48.042969 64 42.640625 64 36 L 64 27.0625 C 64 26.371094 63.441406 25.8125 62.75 25.8125 Z M 52.863281 57 C 52.289062 59.570312 49.992188 61.5 47.25 61.5 L 8.25 61.5 C 5.507812 61.5 3.210938 59.570312 2.636719 57 Z M 52.5 34 L 52.5 33.3125 L 56.5 33.3125 L 56.5 36 C 56.5 38.503906 54.460938 40.542969 51.957031 40.542969 L 51.675781 40.542969 C 52.21875 38.414062 52.5 36.21875 52.5 34 Z M 61.5 36 C 61.5 41.261719 57.21875 45.542969 51.957031 45.542969 L 49.832031 45.542969 C 50.230469 44.726562 50.585938 43.890625 50.898438 43.042969 L 51.957031 43.042969 C 55.839844 43.042969 59 39.882812 59 36 L 59 32.0625 C 59 31.371094 58.441406 30.8125 57.75 30.8125 L 52.5 30.8125 L 52.5 28.3125 L 61.5 28.3125 Z M 61.5 36 "/>
<path style=" stroke:none;fill-rule:nonzero;fill:rgb(100%,100%,100%);fill-opacity:1;" d="M 27.445312 6.917969 L 26.792969 6.101562 C 25.839844 4.902344 25.835938 3.226562 26.789062 2.027344 C 27.21875 1.488281 27.128906 0.699219 26.585938 0.269531 C 26.046875 -0.160156 25.261719 -0.0664062 24.832031 0.472656 C 23.152344 2.589844 23.152344 5.542969 24.835938 7.660156 L 25.488281 8.476562 C 26.734375 10.042969 26.738281 12.230469 25.492188 13.800781 L 24.824219 14.640625 C 24.398438 15.179688 24.488281 15.964844 25.027344 16.394531 C 25.257812 16.578125 25.53125 16.667969 25.804688 16.667969 C 26.171875 16.667969 26.539062 16.503906 26.785156 16.195312 L 27.449219 15.355469 C 29.421875 12.867188 29.421875 9.398438 27.445312 6.917969 Z M 27.445312 6.917969 "/>
<path style=" stroke:none;fill-rule:nonzero;fill:rgb(100%,100%,100%);fill-opacity:1;" d="M 34.371094 9.726562 L 33.722656 8.910156 C 32.765625 7.714844 32.765625 6.039062 33.71875 4.835938 C 34.148438 4.296875 34.058594 3.511719 33.515625 3.082031 C 32.976562 2.652344 32.191406 2.742188 31.761719 3.285156 C 30.078125 5.402344 30.082031 8.355469 31.765625 10.46875 L 32.417969 11.285156 C 33.664062 12.851562 33.667969 15.042969 32.421875 16.609375 L 31.753906 17.449219 C 31.324219 17.992188 31.414062 18.777344 31.957031 19.207031 C 32.1875 19.386719 32.460938 19.476562 32.734375 19.476562 C 33.101562 19.476562 33.464844 19.316406 33.714844 19.003906 L 34.378906 18.164062 C 36.351562 15.679688 36.347656 12.210938 34.371094 9.726562 Z M 34.371094 9.726562 "/>
<path style=" stroke:none;fill-rule:nonzero;fill:rgb(100%,100%,100%);fill-opacity:1;" d="M 20.515625 9.726562 L 19.863281 8.910156 C 18.910156 7.714844 18.910156 6.039062 19.859375 4.835938 C 20.289062 4.296875 20.199219 3.511719 19.660156 3.082031 C 19.117188 2.652344 18.332031 2.742188 17.902344 3.285156 C 16.222656 5.402344 16.226562 8.355469 17.910156 10.46875 L 18.558594 11.285156 C 19.808594 12.851562 19.808594 15.042969 18.5625 16.609375 L 17.898438 17.449219 C 17.46875 17.992188 17.558594 18.777344 18.097656 19.207031 C 18.328125 19.386719 18.601562 19.476562 18.875 19.476562 C 19.242188 19.476562 19.609375 19.316406 19.855469 19.003906 L 20.523438 18.164062 C 22.496094 15.679688 22.492188 12.210938 20.515625 9.726562 Z M 20.515625 9.726562 "/>
<path style=" stroke:none;fill-rule:nonzero;fill:rgb(100%,100%,100%);fill-opacity:1;" d="M 18.785156 22.28125 C 18.550781 22.050781 18.230469 21.917969 17.902344 21.917969 C 17.574219 21.917969 17.25 22.050781 17.015625 22.28125 C 16.785156 22.515625 16.652344 22.835938 16.652344 23.167969 C 16.652344 23.496094 16.785156 23.816406 17.015625 24.050781 C 17.25 24.285156 17.574219 24.417969 17.902344 24.417969 C 18.230469 24.417969 18.550781 24.285156 18.785156 24.050781 C 19.019531 23.816406 19.152344 23.496094 19.152344 23.167969 C 19.152344 22.835938 19.019531 22.515625 18.785156 22.28125 Z M 18.785156 22.28125 "/>
<path style=" stroke:none;fill-rule:nonzero;fill:rgb(100%,100%,100%);fill-opacity:1;" d="M 45.25 32.75 C 44.558594 32.75 44 33.308594 44 34 C 44 38.640625 42.117188 43.199219 38.835938 46.511719 C 38.351562 47 38.355469 47.792969 38.84375 48.277344 C 39.089844 48.519531 39.40625 48.640625 39.722656 48.640625 C 40.046875 48.640625 40.367188 48.515625 40.613281 48.269531 C 44.355469 44.496094 46.5 39.292969 46.5 34 C 46.5 33.308594 45.941406 32.75 45.25 32.75 Z M 45.25 32.75 "/>
<path style=" stroke:none;fill-rule:nonzero;fill:rgb(100%,100%,100%);fill-opacity:1;" d="M 36.734375 49.902344 C 36.394531 49.300781 35.632812 49.089844 35.03125 49.429688 L 35.003906 49.445312 C 34.402344 49.785156 34.191406 50.546875 34.53125 51.148438 C 34.757812 51.554688 35.183594 51.785156 35.621094 51.785156 C 35.828125 51.785156 36.039062 51.730469 36.234375 51.621094 L 36.261719 51.605469 C 36.863281 51.265625 37.074219 50.503906 36.734375 49.902344 Z M 36.734375 49.902344 "/>
</g>
</svg>
