<svg width="122.88" height="122.88" xmlns="http://www.w3.org/2000/svg" data-name="Layer 1">

 <title>filmora</title>
 <g>
  <title>Layer 1</title>
  <path id="svg_1" fill-rule="evenodd" fill="#000000" d="m28.08,0l66.72,0a28.17,28.17 0 0 1 28.08,28.08l0,66.72a28.17,28.17 0 0 1 -28.08,28.08l-66.72,0a28.17,28.17 0 0 1 -28.08,-28.08l0,-66.72a28.17,28.17 0 0 1 28.08,-28.08z" class="cls-1"/>
  <path id="svg_2" fill="#fff" d="m46,55.24l-16.68,-16.69l20.62,-20.64l20.61,20.63l-23.63,23.67l-0.11,-0.12a5.58,5.58 0 0 0 -0.81,-6.85z" class="cls-2"/>
  <polygon id="svg_3" fill="#ffffff" points="93.58 61.27 49.92 104.97 29.3 84.34 72.96 40.63 93.58 61.27 93.58 61.27" class="cls-3"/>
  <path d="m84.44,20.44c2,0 5.11809,-0.6246 12,1c6.15536,1.45308 11.7187,3.96141 15,7c4.2783,3.96184 6.48626,6.82375 7,9c0.22975,0.97325 -1,1 -2,1l-1,0" id="svg_4" fill="none"/>
  <polyline stroke="null" stroke-linecap="round" id="svg_6" points="21.44000244140625,11.44000244140625 21.44000244140625,10.44000244140625 " fill="none"/>
 </g>
</svg>