<svg version="1.1" id="Icons" xmlns="http://www.w3.org/2000/svg" xmlns:xlink="http://www.w3.org/1999/xlink" x="0px" y="0px" viewBox="0 0 32 32" style="enable-background:new 0 0 32 32;" xml:space="preserve">
<style type="text/css">
	.st0{fill:none;stroke:#000000;stroke-width:2;stroke-linecap:round;stroke-linejoin:round;stroke-miterlimit:10;}
	.st1{fill:none;stroke:#000000;stroke-width:2;stroke-linejoin:round;stroke-miterlimit:10;}
	.st2{fill:none;stroke:#000000;stroke-width:2;stroke-linecap:round;stroke-miterlimit:10;}
</style>
<path class="st0" d="M3,6v15c0,1.1,0.9,2,2,2h22c1.1,0,2-0.9,2-2V6c0-1.1-0.9-2-2-2H5C3.9,4,3,4.9,3,6z" id="id_101" style="stroke: rgb(255, 255, 255);"></path>
<line class="st0" x1="3" y1="19" x2="29" y2="19" id="id_102" style="stroke: rgb(255, 255, 255);"></line>
<line class="st0" x1="9" y1="29" x2="23" y2="29" id="id_103" style="stroke: rgb(255, 255, 255);"></line>
<path class="st2" d="M13,23c0,2.1-0.7,4.6-1.8,6" id="id_104" style="stroke: rgb(255, 255, 255);"></path>
<path class="st2" d="M20.8,29c-1.1-1.4-1.8-3.9-1.8-6" id="id_105" style="stroke: rgb(255, 255, 255);"></path>
<path class="st0" d="M18.8,16c0.1-0.3,0.2-0.6,0.2-1c0-1.7-1.3-3-3-3s-3,1.3-3,3c0,0.4,0.1,0.7,0.2,1" id="id_106" style="stroke: rgb(255, 255, 255);"></path>
<path class="st0" d="M24.3,16c0-0.3,0.1-0.7,0.1-1c0-0.7-0.1-1.3-0.2-1.9c-1,0.1-2-0.3-2.5-1.3c-0.5-0.9-0.4-2,0.2-2.8
	c-0.9-0.9-2.1-1.6-3.4-2C18,7.9,17.1,8.6,16,8.6S14,7.9,13.6,7c-1.3,0.4-2.4,1.1-3.4,2c0.6,0.8,0.7,1.9,0.2,2.8
	c-0.5,0.9-1.6,1.4-2.5,1.3c-0.1,0.6-0.2,1.3-0.2,1.9c0,0.3,0,0.7,0.1,1" id="id_107" style="stroke: rgb(255, 255, 255);"></path>
</svg>