<svg id="a" xmlns="http://www.w3.org/2000/svg" viewBox="0 0 64 64"><path d="M55,7c-.55,0-1,.45-1,1v7h-19v2h19v22.52c0,.42,.27,.8,.67,.94,2.87,1.02,4.9,3.57,5.27,6.53H7.17c-1.19,0-2.29,.42-3.17,1.08V22c0-2.76,2.24-5,5-5H29v-2H9c-3.86,0-7,3.14-7,7v30h.03c0,1.24,.44,2.44,1.27,3.36,.95,1.04,2.29,1.64,3.7,1.64,.55,0,1-.45,1-1v-7H61c.55,0,1-.45,1-1V14c0-3.86-3.14-7-7-7ZM6,54.83c-.46-.16-.88-.44-1.22-.81-.58-.63-.85-1.46-.77-2.32,.11-1.13,.91-2.08,1.99-2.49v5.61Zm54-12.81c-1.02-1.36-2.39-2.47-4-3.17V9.1c2.28,.46,4,2.48,4,4.9v28.01Z" id="id_101" style="fill: rgb(255, 255, 255);"></path><path d="M14,22c0-.55-.45-1-1-1h-4c-.55,0-1,.45-1,1v4c0,.55,.45,1,1,1h4c.55,0,1-.45,1-1v-4Zm-2,3h-2v-2h2v2Z" id="id_102" style="fill: rgb(255, 255, 255);"></path><path d="M21.32,20.27l-3.6,3.36-1.03-.96-1.36,1.46,1.71,1.6c.19,.18,.44,.27,.68,.27s.49-.09,.68-.27l4.29-4-1.36-1.46Z" id="id_103" style="fill: rgb(255, 255, 255);"></path><path d="M14,30c0-.55-.45-1-1-1h-4c-.55,0-1,.45-1,1v4c0,.55,.45,1,1,1h4c.55,0,1-.45,1-1v-4Zm-2,3h-2v-2h2v2Z" id="id_104" style="fill: rgb(255, 255, 255);"></path><path d="M21.32,28.27l-3.6,3.36-1.03-.96-1.36,1.46,1.71,1.6c.19,.18,.44,.27,.68,.27s.49-.09,.68-.27l4.29-4-1.36-1.46Z" id="id_105" style="fill: rgb(255, 255, 255);"></path><path d="M13,37h-4c-.55,0-1,.45-1,1v4c0,.55,.45,1,1,1h4c.55,0,1-.45,1-1v-4c0-.55-.45-1-1-1Zm-1,4h-2v-2h2v2Z" id="id_106" style="fill: rgb(255, 255, 255);"></path><path d="M16.68,38.67l-1.36,1.46,1.71,1.6c.19,.18,.44,.27,.68,.27s.49-.09,.68-.27l4.29-4-1.36-1.46-3.6,3.36-1.03-.96Z" id="id_107" style="fill: rgb(255, 255, 255);"></path><rect x="24" y="21" width="2" height="2" id="id_108" style="fill: rgb(255, 255, 255);"></rect><rect x="28" y="21" width="24" height="2" id="id_109" style="fill: rgb(255, 255, 255);"></rect><rect x="50" y="25" width="2" height="2" id="id_110" style="fill: rgb(255, 255, 255);"></rect><rect x="24" y="25" width="24" height="2" id="id_111" style="fill: rgb(255, 255, 255);"></rect><rect x="24" y="29" width="2" height="2" id="id_112" style="fill: rgb(255, 255, 255);"></rect><rect x="28" y="29" width="24" height="2" id="id_113" style="fill: rgb(255, 255, 255);"></rect><rect x="50" y="33" width="2" height="2" id="id_114" style="fill: rgb(255, 255, 255);"></rect><rect x="24" y="33" width="24" height="2" id="id_115" style="fill: rgb(255, 255, 255);"></rect><rect x="24" y="37" width="2" height="2" id="id_116" style="fill: rgb(255, 255, 255);"></rect><rect x="28" y="37" width="24" height="2" id="id_117" style="fill: rgb(255, 255, 255);"></rect><rect x="50" y="41" width="2" height="2" id="id_118" style="fill: rgb(255, 255, 255);"></rect><rect x="24" y="41" width="24" height="2" id="id_119" style="fill: rgb(255, 255, 255);"></rect><rect x="31" y="15" width="2" height="2" id="id_120" style="fill: rgb(255, 255, 255);"></rect></svg>