<?xml version="1.0" encoding="UTF-8"?>
<svg xmlns="http://www.w3.org/2000/svg" xmlns:xlink="http://www.w3.org/1999/xlink" width="64px" height="64px" viewBox="0 0 64 64" version="1.1">
<g id="surface1">
<path style=" stroke:none;fill-rule:nonzero;fill:rgb(100%,100%,100%);fill-opacity:1;" d="M 55 7 C 54.449219 7 54 7.449219 54 8 L 54 15 L 35 15 L 35 17 L 54 17 L 54 39.519531 C 54 39.941406 54.269531 40.320312 54.671875 40.460938 C 57.539062 41.480469 59.570312 44.03125 59.941406 46.988281 L 7.171875 46.988281 C 5.980469 46.988281 4.878906 47.410156 4 48.070312 L 4 22 C 4 19.238281 6.238281 17 9 17 L 29 17 L 29 15 L 9 15 C 5.140625 15 2 18.140625 2 22 L 2 52 L 2.03125 52 C 2.03125 53.238281 2.46875 54.441406 3.300781 55.359375 C 4.25 56.398438 5.589844 57 7 57 C 7.550781 57 8 56.550781 8 56 L 8 49 L 61 49 C 61.550781 49 62 48.550781 62 48 L 62 14 C 62 10.140625 58.859375 7 55 7 Z M 6 54.828125 C 5.539062 54.671875 5.121094 54.390625 4.78125 54.019531 C 4.199219 53.390625 3.929688 52.558594 4.011719 51.699219 C 4.121094 50.570312 4.921875 49.621094 6 49.210938 Z M 60 42.019531 C 58.980469 40.660156 57.609375 39.550781 56 38.851562 L 56 9.101562 C 58.28125 9.558594 60 11.578125 60 14 Z M 60 42.019531 "/>
<path style=" stroke:none;fill-rule:nonzero;fill:rgb(100%,100%,100%);fill-opacity:1;" d="M 14 22 C 14 21.449219 13.550781 21 13 21 L 9 21 C 8.449219 21 8 21.449219 8 22 L 8 26 C 8 26.550781 8.449219 27 9 27 L 13 27 C 13.550781 27 14 26.550781 14 26 Z M 12 25 L 10 25 L 10 23 L 12 23 Z M 12 25 "/>
<path style=" stroke:none;fill-rule:nonzero;fill:rgb(100%,100%,100%);fill-opacity:1;" d="M 21.320312 20.269531 L 17.71875 23.628906 L 16.691406 22.671875 L 15.328125 24.128906 L 17.039062 25.730469 C 17.230469 25.910156 17.480469 26 17.71875 26 C 17.960938 26 18.210938 25.910156 18.398438 25.730469 L 22.691406 21.730469 L 21.328125 20.269531 Z M 21.320312 20.269531 "/>
<path style=" stroke:none;fill-rule:nonzero;fill:rgb(100%,100%,100%);fill-opacity:1;" d="M 14 30 C 14 29.449219 13.550781 29 13 29 L 9 29 C 8.449219 29 8 29.449219 8 30 L 8 34 C 8 34.550781 8.449219 35 9 35 L 13 35 C 13.550781 35 14 34.550781 14 34 Z M 12 33 L 10 33 L 10 31 L 12 31 Z M 12 33 "/>
<path style=" stroke:none;fill-rule:nonzero;fill:rgb(100%,100%,100%);fill-opacity:1;" d="M 21.320312 28.269531 L 17.71875 31.628906 L 16.691406 30.671875 L 15.328125 32.128906 L 17.039062 33.730469 C 17.230469 33.910156 17.480469 34 17.71875 34 C 17.960938 34 18.210938 33.910156 18.398438 33.730469 L 22.691406 29.730469 L 21.328125 28.269531 Z M 21.320312 28.269531 "/>
<path style=" stroke:none;fill-rule:nonzero;fill:rgb(100%,100%,100%);fill-opacity:1;" d="M 13 37 L 9 37 C 8.449219 37 8 37.449219 8 38 L 8 42 C 8 42.550781 8.449219 43 9 43 L 13 43 C 13.550781 43 14 42.550781 14 42 L 14 38 C 14 37.449219 13.550781 37 13 37 Z M 12 41 L 10 41 L 10 39 L 12 39 Z M 12 41 "/>
<path style=" stroke:none;fill-rule:nonzero;fill:rgb(100%,100%,100%);fill-opacity:1;" d="M 16.679688 38.671875 L 15.320312 40.128906 L 17.03125 41.730469 C 17.21875 41.910156 17.46875 42 17.710938 42 C 17.949219 42 18.199219 41.910156 18.390625 41.730469 L 22.679688 37.730469 L 21.320312 36.269531 L 17.71875 39.628906 L 16.691406 38.671875 Z M 16.679688 38.671875 "/>
<path style=" stroke:none;fill-rule:nonzero;fill:rgb(100%,100%,100%);fill-opacity:1;" d="M 24 21 L 26 21 L 26 23 L 24 23 Z M 24 21 "/>
<path style=" stroke:none;fill-rule:nonzero;fill:rgb(100%,100%,100%);fill-opacity:1;" d="M 28 21 L 52 21 L 52 23 L 28 23 Z M 28 21 "/>
<path style=" stroke:none;fill-rule:nonzero;fill:rgb(100%,100%,100%);fill-opacity:1;" d="M 50 25 L 52 25 L 52 27 L 50 27 Z M 50 25 "/>
<path style=" stroke:none;fill-rule:nonzero;fill:rgb(100%,100%,100%);fill-opacity:1;" d="M 24 25 L 48 25 L 48 27 L 24 27 Z M 24 25 "/>
<path style=" stroke:none;fill-rule:nonzero;fill:rgb(100%,100%,100%);fill-opacity:1;" d="M 24 29 L 26 29 L 26 31 L 24 31 Z M 24 29 "/>
<path style=" stroke:none;fill-rule:nonzero;fill:rgb(100%,100%,100%);fill-opacity:1;" d="M 28 29 L 52 29 L 52 31 L 28 31 Z M 28 29 "/>
<path style=" stroke:none;fill-rule:nonzero;fill:rgb(100%,100%,100%);fill-opacity:1;" d="M 50 33 L 52 33 L 52 35 L 50 35 Z M 50 33 "/>
<path style=" stroke:none;fill-rule:nonzero;fill:rgb(100%,100%,100%);fill-opacity:1;" d="M 24 33 L 48 33 L 48 35 L 24 35 Z M 24 33 "/>
<path style=" stroke:none;fill-rule:nonzero;fill:rgb(100%,100%,100%);fill-opacity:1;" d="M 24 37 L 26 37 L 26 39 L 24 39 Z M 24 37 "/>
<path style=" stroke:none;fill-rule:nonzero;fill:rgb(100%,100%,100%);fill-opacity:1;" d="M 28 37 L 52 37 L 52 39 L 28 39 Z M 28 37 "/>
<path style=" stroke:none;fill-rule:nonzero;fill:rgb(100%,100%,100%);fill-opacity:1;" d="M 50 41 L 52 41 L 52 43 L 50 43 Z M 50 41 "/>
<path style=" stroke:none;fill-rule:nonzero;fill:rgb(100%,100%,100%);fill-opacity:1;" d="M 24 41 L 48 41 L 48 43 L 24 43 Z M 24 41 "/>
<path style=" stroke:none;fill-rule:nonzero;fill:rgb(100%,100%,100%);fill-opacity:1;" d="M 31 15 L 33 15 L 33 17 L 31 17 Z M 31 15 "/>
</g>
</svg>
