<?xml version="1.0" encoding="UTF-8"?>
<svg xmlns="http://www.w3.org/2000/svg" xmlns:xlink="http://www.w3.org/1999/xlink" width="64px" height="64px" viewBox="0 0 64 64" version="1.1">
<g id="surface1">
<path style=" stroke:none;fill-rule:nonzero;fill:rgb(100%,100%,100%);fill-opacity:1;" d="M 52.640625 20.480469 L 55.308594 17.8125 L 51.441406 14.105469 L 48.773438 16.773438 C 37.769531 7.789062 21.652344 9.003906 12.125 19.542969 C 2.597656 30.082031 3.003906 46.238281 13.050781 56.285156 C 23.09375 66.328125 39.253906 66.734375 49.789062 57.207031 C 60.328125 47.679688 61.546875 31.5625 52.558594 20.558594 Z M 32 58.667969 C 20.21875 58.667969 10.667969 49.117188 10.667969 37.332031 C 10.667969 25.550781 20.21875 16 32 16 C 43.78125 16 53.332031 25.550781 53.332031 37.332031 C 53.332031 49.117188 43.78125 58.667969 32 58.667969 Z M 32 58.667969 "/>
<path style=" stroke:none;fill-rule:nonzero;fill:rgb(100%,100%,100%);fill-opacity:1;" d="M 18.667969 2.667969 L 45.332031 2.667969 L 45.332031 8 L 18.667969 8 Z M 18.667969 2.667969 "/>
<path style=" stroke:none;fill-rule:nonzero;fill:rgb(100%,100%,100%);fill-opacity:1;" d="M 34.667969 37.332031 L 34.667969 21.332031 L 29.332031 21.332031 L 29.332031 42.667969 L 48 42.667969 L 48 37.332031 Z M 34.667969 37.332031 "/>
</g>
</svg>
