<svg id="Layer_1" data-name="Layer 1" xmlns="http://www.w3.org/2000/svg" viewBox="0 0 512 512"><title>Add</title><path d="M472.22,164.65A235.29,235.29,0,0,0,347.35,39.78a235.37,235.37,0,0,0-182.7,0A235.29,235.29,0,0,0,39.78,164.65a235.37,235.37,0,0,0,0,182.7A235.29,235.29,0,0,0,164.65,472.22a235.37,235.37,0,0,0,182.7,0A235.29,235.29,0,0,0,472.22,347.35a235.37,235.37,0,0,0,0-182.7Zm-39.3,166.08A192.7,192.7,0,1,1,448,256,191.39,191.39,0,0,1,432.92,330.73Z" id="id_101" style="fill: rgb(255, 255, 255);"></path><path d="M341.33,234.67h-64v-64a21.33,21.33,0,1,0-42.66,0v64h-64a21.33,21.33,0,1,0,0,42.66h64v64a21.33,21.33,0,1,0,42.66,0v-64h64a21.33,21.33,0,1,0,0-42.66Z" id="id_102" style="fill: rgb(255, 255, 255);"></path></svg>