<?xml version="1.0" encoding="UTF-8"?>
<svg xmlns="http://www.w3.org/2000/svg" xmlns:xlink="http://www.w3.org/1999/xlink" width="64px" height="64px" viewBox="0 0 64 64" version="1.1">
<g id="surface1">
<path style=" stroke:none;fill-rule:nonzero;fill:rgb(100%,100%,100%);fill-opacity:1;" d="M 26.917969 7 C 25.320312 7 23.910156 7.84375 23.003906 9.019531 C 22.265625 9.976562 21.816406 11.171875 21.671875 12.46875 L 4.007812 12.46875 L 4.007812 12.476562 L 4 12.476562 L 4 26.28125 L 4.007812 26.28125 L 4.007812 57 L 59.988281 57 L 59.988281 26.238281 L 60 26.234375 L 60 12.476562 L 59.988281 12.476562 L 59.988281 12.46875 L 42.320312 12.46875 C 42.179688 11.171875 41.730469 9.984375 40.996094 9.027344 C 40.089844 7.851562 38.679688 7 37.082031 7 Z M 26.917969 10.183594 L 37.082031 10.183594 C 37.542969 10.183594 37.976562 10.394531 38.398438 10.941406 C 38.660156 11.285156 38.738281 11.910156 38.867188 12.46875 L 25.132812 12.46875 C 25.261719 11.910156 25.335938 11.285156 25.605469 10.941406 C 26.023438 10.394531 26.457031 10.183594 26.917969 10.183594 Z M 7.253906 15.664062 L 56.746094 15.664062 L 56.746094 24.058594 L 37.84375 31.246094 C 36.976562 29.527344 35.179688 28.320312 33.097656 28.320312 L 30.75 28.320312 C 28.726562 28.320312 26.972656 29.464844 26.078125 31.113281 L 7.253906 24.09375 Z M 56.746094 27.46875 L 56.746094 53.832031 L 7.246094 53.832031 L 7.246094 27.496094 L 25.445312 34.273438 L 25.445312 35.957031 C 25.445312 38.808594 27.835938 41.171875 30.75 41.171875 L 33.097656 41.171875 C 36.011719 41.171875 38.410156 38.808594 38.410156 35.957031 L 38.410156 34.453125 Z M 30.75 31.507812 L 33.105469 31.507812 C 34.28125 31.507812 35.085938 32.289062 35.132812 33.433594 L 35.164062 34.230469 L 35.164062 35.957031 C 35.164062 37.144531 34.308594 37.976562 33.097656 37.976562 L 30.75 37.976562 C 29.539062 37.976562 28.683594 37.140625 28.683594 35.957031 L 28.683594 34.039062 L 28.746094 33.34375 C 28.847656 32.25 29.613281 31.507812 30.75 31.507812 Z M 30.75 31.507812 "/>
</g>
</svg>
